<?xml version="1.0" standalone="no"?>
<!DOCTYPE svg PUBLIC "-//W3C//DTD SVG 1.1//EN" "http://www.w3.org/Graphics/SVG/1.1/DTD/svg11.dtd" >
<svg xmlns="http://www.w3.org/2000/svg">
<metadata>Generated by IcoMoon</metadata>
<defs>
<font id="icomoon" horiz-adv-x="1024">
<font-face units-per-em="1024" ascent="960" descent="-64" />
<missing-glyph horiz-adv-x="1024" />
<glyph unicode="&#x20;" horiz-adv-x="512" d="" />
<glyph unicode="&#xe900;" horiz-adv-x="1012" d="M976.964 867.075h-105.95c-19.567 0-35.429-15.862-35.429-35.429s15.862-35.429 35.429-35.429h70.622v-789.561h-871.014v789.561h94.174c19.567 0 35.429 15.862 35.429 35.429s-15.862 35.429-35.429 35.429h-129.468c-19.5-0.057-35.29-15.859-35.328-35.358v-860.423c0.076-19.473 15.852-35.237 35.322-35.294h941.608c19.5 0.057 35.29 15.859 35.328 35.358v860.423c-0.076 19.462-15.833 35.218-35.287 35.294h-0.007z" />
<glyph unicode="&#xe901;" horiz-adv-x="1012" d="M552.524 867.075h-98.729c-19.25 0-34.855-15.605-34.855-34.855s15.605-34.855 34.855-34.855v0h98.729c19.25 0 34.855 15.605 34.855 34.855s-15.605 34.855-34.855 34.855v0z" />
<glyph unicode="&#xe902;" horiz-adv-x="1012" d="M345.754 514.033c0.074 0.944 0.116 2.045 0.116 3.156 0 22.37-17.060 40.755-38.879 42.855l-0.175 0.014h-90.833c-21.994-2.113-39.054-20.499-39.054-42.868 0-1.11 0.042-2.211 0.125-3.3l-0.009 0.145v-76.695c-0.074-0.944-0.116-2.045-0.116-3.156 0-22.37 17.060-40.755 38.879-42.855l0.175-0.014h90.833c21.994 2.113 39.054 20.499 39.054 42.868 0 1.11-0.042 2.211-0.125 3.3l0.009-0.145z" />
<glyph unicode="&#xe903;" horiz-adv-x="1012" d="M585.692 514.033c0.074 0.944 0.116 2.045 0.116 3.156 0 22.37-17.060 40.755-38.879 42.855l-0.175 0.014h-90.833c-21.994-2.113-39.054-20.499-39.054-42.868 0-1.11 0.042-2.211 0.125-3.3l-0.009 0.145v-76.695c-0.074-0.944-0.116-2.045-0.116-3.156 0-22.37 17.060-40.755 38.879-42.855l0.175-0.014h90.833c21.994 2.113 39.054 20.499 39.054 42.868 0 1.11-0.042 2.211-0.125 3.3l0.009-0.145z" />
<glyph unicode="&#xe904;" horiz-adv-x="1012" d="M825.631 514.033c0.074 0.944 0.116 2.045 0.116 3.156 0 22.37-17.060 40.755-38.879 42.855l-0.175 0.014h-90.833c-21.994-2.113-39.054-20.499-39.054-42.868 0-1.11 0.042-2.211 0.125-3.3l-0.009 0.145v-76.695c-0.074-0.944-0.116-2.045-0.116-3.156 0-22.37 17.060-40.755 38.879-42.855l0.175-0.014h90.833c21.994 2.113 39.054 20.499 39.054 42.868 0 1.11-0.042 2.211-0.125 3.3l0.009-0.145z" />
<glyph unicode="&#xe905;" horiz-adv-x="1012" d="M345.754 239.812c0.074 0.944 0.116 2.045 0.116 3.156 0 22.37-17.060 40.755-38.879 42.855l-0.175 0.014h-90.833c-21.994-2.113-39.054-20.499-39.054-42.868 0-1.11 0.042-2.211 0.125-3.3l-0.009 0.145v-76.695c-0.074-0.944-0.116-2.045-0.116-3.156 0-22.37 17.060-40.755 38.879-42.855l0.175-0.014h90.833c21.994 2.113 39.054 20.499 39.054 42.868 0 1.11-0.042 2.211-0.125 3.3l0.009-0.145z" />
<glyph unicode="&#xe906;" horiz-adv-x="1012" d="M585.692 239.812c0.074 0.944 0.116 2.045 0.116 3.156 0 22.37-17.060 40.755-38.879 42.855l-0.175 0.014h-90.833c-21.994-2.113-39.054-20.499-39.054-42.868 0-1.11 0.042-2.211 0.125-3.3l-0.009 0.145v-76.695c-0.074-0.944-0.116-2.045-0.116-3.156 0-22.37 17.060-40.755 38.879-42.855l0.175-0.014h90.833c21.994 2.113 39.054 20.499 39.054 42.868 0 1.11-0.042 2.211-0.125 3.3l0.009-0.145z" />
<glyph unicode="&#xe907;" horiz-adv-x="1012" d="M825.631 239.812c0.074 0.944 0.116 2.045 0.116 3.156 0 22.37-17.060 40.755-38.879 42.855l-0.175 0.014h-90.833c-21.994-2.113-39.054-20.499-39.054-42.868 0-1.11 0.042-2.211 0.125-3.3l-0.009 0.145v-76.695c-0.074-0.944-0.116-2.045-0.116-3.156 0-22.37 17.060-40.755 38.879-42.855l0.175-0.014h90.833c21.994 2.113 39.054 20.499 39.054 42.868 0 1.11-0.042 2.211-0.125 3.3l0.009-0.145z" />
<glyph unicode="&#xe908;" horiz-adv-x="1012" d="M317.309 727.653c19.227 0.057 34.798 15.628 34.855 34.85v162.642c-0.057 19.227-15.628 34.798-34.85 34.855h-34.861c-19.227-0.057-34.798-15.628-34.855-34.85v-162.642c0.057-19.227 15.628-34.798 34.85-34.855h0.006z" />
<glyph unicode="&#xe909;" horiz-adv-x="1012" d="M724.001 960h-34.855c-19.227-0.057-34.798-15.628-34.855-34.85v-162.642c0.057-19.227 15.628-34.798 34.85-34.855h34.861c19.227 0.057 34.798 15.628 34.855 34.85v162.642c-0.057 19.227-15.628 34.798-34.85 34.855h-0.006z" />
<glyph unicode="&#xe90a;" glyph-name="Down" horiz-adv-x="1222" d="M577.955 960h65.856v-790.803h-65.856v790.803zM610.883 122.703l-321.313 321.247 46.56 46.56 274.753-274.687 274.687 274.687 46.56-46.56zM1221.767-64h-1221.437v433.664h65.856v-367.742h1089.988v367.742h65.856z" />
<glyph unicode="&#xe90b;" glyph-name="left" horiz-adv-x="1076" d="M512.027-64l-512.027 511.973 512.027 512.027 38.614-38.614-473.359-473.414 473.359-473.359zM34.135 478.776h1041.696v-54.616h-1041.696v54.616z" />
<glyph unicode="&#xe90c;" glyph-name="more" horiz-adv-x="534" d="M79.258-64l-79.258 70.358 392.583 441.642-392.583 441.642 79.258 70.358 455.099-512z" />
<glyph unicode="&#xe90d;" glyph-name="q" horiz-adv-x="520" d="M165.251 236.016v25.051c-0.008 1.007-0.013 2.198-0.013 3.391 0 23.421 1.847 46.411 5.404 68.832l-0.324-2.477c3.529 21.799 9.907 41.378 18.831 59.478l-0.545-1.224c10.196 20.258 22.033 37.72 35.802 53.449l-0.249-0.291c17.361 19.731 35.756 37.579 55.463 53.895l0.809 0.651q32.467 27.825 55.48 50.47c14.020 13.57 26.423 28.663 36.987 45.054l0.603 1c9.143 14.419 16.565 31.097 21.385 48.846l0.297 1.284c4.533 17.64 7.136 37.891 7.136 58.749 0 1.368-0.011 2.734-0.034 4.098l0.003-0.205c0.008 0.623 0.013 1.359 0.013 2.096 0 20.525-3.731 40.178-10.552 58.319l0.377-1.142c-6.789 17.979-16.811 33.333-29.472 46.060l0.006-0.006c-13.263 12.988-29.335 23.163-47.214 29.525l-0.906 0.281c-18.813 6.677-40.51 10.535-63.109 10.535-1.269 0-2.535-0.012-3.797-0.036l0.189 0.003c-0.468 0.002-1.021 0.004-1.574 0.004-37.752 0-73.997-6.45-107.695-18.307l2.272 0.697c-39.605-13.732-72.030-27.442-103.417-42.934l5.252 2.343-42.657 98.080c33.298 17.613 72.533 34.039 113.311 47.003l5.206 1.429c38.66 12.66 83.153 19.968 129.351 19.984h0.008c1.466 0.022 3.197 0.035 4.931 0.035 38.798 0 76.118-6.331 110.982-18.017l-2.462 0.716c33.212-11.078 61.796-28.088 85.879-49.966l-0.196 0.176c23.287-21.701 41.715-48.291 53.689-78.164l0.517-1.461c12.025-30.15 18.998-65.092 18.998-101.662 0-1.517-0.012-3.032-0.036-4.544l0.003 0.228c0.017-1.238 0.027-2.699 0.027-4.162 0-27.246-3.343-53.711-9.642-79.008l0.473 2.243c-6.461-25.046-15.862-47.031-28.048-67.14l0.62 1.102c-13.607-22.255-28.566-41.554-45.393-59.042l0.104 0.108q-27.089-28.306-63.66-60.264-35.213-30.486-57.575-53.159c-13.116-12.965-24.741-27.388-34.625-43.021l-0.587-0.995c-7.842-12.556-13.924-27.158-17.428-42.735l-0.178-0.942c-3.020-14.686-4.748-31.565-4.748-48.848 0-1.157 0.008-2.313 0.023-3.467l-0.002 0.175v-12.2zM132.755 30.825c-0.026 0.941-0.040 2.049-0.040 3.16 0 14.522 2.493 28.461 7.073 41.414l-0.268-0.869c4.091 11.385 10.33 21.114 18.29 29.132l-0.005-0.005c7.43 7.223 16.502 12.797 26.6 16.109l0.489 0.139c9.807 3.217 21.094 5.073 32.814 5.073 0.405 0 0.81-0.002 1.215-0.007l-0.062 0.001c0.17 0.001 0.37 0.001 0.571 0.001 11.765 0 23.097-1.854 33.719-5.285l-0.776 0.217c10.72-3.39 19.914-8.975 27.447-16.266l-0.019 0.018c7.924-8.018 14.135-17.746 18.029-28.58l0.172-0.547c4.312-12.083 6.805-26.022 6.805-40.542 0-1.102-0.014-2.2-0.043-3.295l0.003 0.162c0.021-0.847 0.033-1.845 0.033-2.845 0-14.386-2.49-28.189-7.064-41.004l0.265 0.852c-4.164-11.449-10.393-21.247-18.305-29.402l0.020 0.020c-7.495-7.508-16.679-13.326-26.935-16.837l-0.494-0.147c-9.84-3.428-21.183-5.408-32.988-5.408-0.185 0-0.37 0-0.555 0.001h0.028c-0.307-0.003-0.669-0.005-1.032-0.005-11.758 0-23.053 1.981-33.57 5.629l0.719-0.217c-10.614 3.719-19.676 9.527-27.086 16.98l-0.003 0.003c-7.902 8.157-14.132 17.985-18.105 28.898l-0.181 0.569c-4.306 11.961-6.796 25.762-6.796 40.145 0 0.963 0.011 1.924 0.033 2.881l-0.003-0.143z" />
<glyph unicode="&#xe90e;" glyph-name="right" horiz-adv-x="1076" d="M563.803-64l-38.614 38.614 473.359 473.359-473.359 473.414 38.614 38.614 512.027-512.027zM0 478.776h1041.696v-54.616h-1041.696v54.616z" />
<glyph unicode="&#xe90f;" glyph-name="w-x" d="M0-7.405l967.364 967.364 56.684-56.684-967.364-967.364-56.684 56.684zM0 903.245l56.683 56.685 967.381-967.347-56.683-56.685-967.381 967.347z" />
<glyph unicode="&#xe910;" glyph-name="x" d="M0 3.521l956.375 956.375 67.627-67.627-956.375-956.375-67.627 67.627zM0 892.288l67.627 67.627 956.375-956.375-67.627-67.627-956.375 956.375z" />
<glyph unicode="&#xe911;" glyph-name="search" d="M661.333 362.667h-33.707l-11.947 11.52c41.633 48.289 66.989 111.635 66.989 180.904 0 153.403-124.357 277.76-277.76 277.76s-277.76-124.357-277.76-277.76c0-153.403 124.357-277.76 277.76-277.76 69.269 0 132.615 25.356 181.264 67.293l-0.36-0.304 11.52-11.947v-33.707l213.333-212.907 63.573 63.573zM405.333 362.667c-106.039 0-192 85.961-192 192s85.961 192 192 192c106.039 0 192-85.961 192-192v0c0-0.076 0-0.166 0-0.256 0-105.897-85.847-191.744-191.744-191.744-0.090 0-0.18 0-0.27 0h0.014z" />
<glyph unicode="&#xe912;" glyph-name="thumb_up" d="M384 64h384c0.089 0 0.194-0.001 0.299-0.001 35.009 0 65.062 21.221 77.998 51.501l0.21 0.553 128.853 300.8c3.777 9.224 5.97 19.929 5.973 31.145v85.334c-0.145 47.070-38.264 85.188-85.319 85.333h-269.241l40.533 194.987 1.28 13.653c-0.041 17.662-7.207 33.643-18.774 45.227l0.001-0.001-45.227 44.8-281.173-281.173c-15.292-15.334-24.747-36.494-24.747-59.864 0-0.104 0-0.208 0.001-0.313v0.016-426.667c0.145-47.070 38.264-85.188 85.319-85.333h0.014zM384 576l185.173 185.173-57.173-227.84h384v-85.333l-128-298.667h-384zM42.667 576h170.667v-512h-170.667z" />
</font>
</defs>
</svg>
